# xmcd
#
# Track frame offsets:
#	150
#	17700
#	35477
#	54639
#	70052
#	83179
#	96979
#	114004
#	127578
#	166767
#	183606
#	196132
#	231307
#	251558
#	275858
#
# Disc length: 3900 seconds
#
# Revision: 0
# Processed by: cddbd v1.5.2PL0 Copyright (c) Steve Scherf et al.
# Submitted via: dBpowerAMP V4.0
#
DISCID=c60f3a0f
DTITLE=Rod Piazza - Modern Master, The Best Of Rod Piazza, 1968-2003, Cd 1
DYEAR=1900
DGENRE=Blues
TTITLE0=Spoonful
TTITLE1=Juicy Harmonica
TTITLE2=Up The Line
TTITLE3=Help Me
TTITLE4=I Got To Go
TTITLE5=The Bounce
TTITLE6=Talk To Your Daughter
TTITLE7=Shot From The Saddle
TTITLE8=Blues For Honey
TTITLE9=Do The Boogie With You
TTITLE10=You Don't Know
TTITLE11=When I'm Wrong, I'm Wrong
TTITLE12=P.S. I Love You
TTITLE13=Texas Twister
TTITLE14=Harpburn
EXTD=
EXTT0=
EXTT1=
EXTT2=
EXTT3=
EXTT4=
EXTT5=
EXTT6=
EXTT7=
EXTT8=
EXTT9=
EXTT10=
EXTT11=
EXTT12=
EXTT13=
EXTT14=
PLAYORDER=
